<?xml version="1.0" encoding="iso-8859-1"?>
<!-- Generator: Adobe Illustrator 19.0.0, SVG Export Plug-In . SVG Version: 6.00 Build 0)  -->
<svg version="1.1" id="Capa_1" xmlns="http://www.w3.org/2000/svg" xmlns:xlink="http://www.w3.org/1999/xlink" x="0px" y="0px"
	 viewBox="0 0 512.001 512.001" style="enable-background:new 0 0 512.001 512.001;" xml:space="preserve">
<g>
	<g>
		<path d="M454.659,227.315H57.343c-19.209,0-39.618,15.87-39.618,45.278v28.299c0,33.098,24.886,60.322,58.301,63.355
			c1.33,0.085,2.66,0.13,3.99,0.13c15.366,0,30.359-5.88,41.656-16.453c0.86-0.798,1.692-1.63,2.502-2.479
			c11.133,11.608,26.788,18.841,44.101,18.841c17.342,0,33.013-7.256,44.146-18.892c11.133,11.636,26.81,18.892,44.146,18.892
			s33.008-7.256,44.146-18.892c11.138,11.636,26.81,18.892,44.146,18.892c17.313,0,32.962-7.233,44.095-18.841
			c0.804,0.849,1.641,1.67,2.502,2.479c12.276,11.484,28.904,17.409,45.771,16.317c31.989-2.349,57.05-29.923,57.05-62.784v-33.959
			C494.277,245.341,476.5,227.315,454.659,227.315z M460.319,301.458c0,14.902-11.472,27.874-25.463,28.904
			c-7.516,0.492-14.67-2.066-20.2-7.239c-5.592-5.23-8.671-12.321-8.671-19.968c0-9.378-7.601-16.979-16.979-16.979
			s-16.979,7.601-16.979,16.979c0,14.987-12.185,27.173-27.167,27.173c-14.981,0-27.167-12.191-27.167-27.173
			c0-9.378-7.601-16.979-16.979-16.979c-9.378,0-16.979,7.601-16.979,16.979c0,14.987-12.191,27.173-27.167,27.173
			c-14.981,0-27.167-12.191-27.167-27.173c0-9.378-7.601-16.979-16.979-16.979s-16.979,7.601-16.979,16.979
			c0,14.987-12.191,27.173-27.167,27.173c-14.981,0-27.167-12.191-27.167-27.173c0-9.378-7.601-16.979-16.979-16.979
			c-9.378,0-16.979,7.601-16.979,16.979c0,7.641-3.079,14.738-8.671,19.973c-5.524,5.162-12.74,7.703-19.787,7.267
			c-15.649-1.426-27.008-13.832-27.008-29.504v-28.299c0-6.56,2.377-11.32,5.66-11.32h397.316c2.62,0,5.66,2.722,5.66,6.226V301.458
			z"/>
	</g>
</g>
<g>
	<g>
		<path d="M438.245,342.208v134.703c0,0.815-0.311,1.132-1.132,1.132H73.756c-0.804,0-1.132-0.323-1.132-1.132V342.208H38.665
			v134.703c0,19.673,15.412,35.091,35.091,35.091h363.357c19.679,0,35.091-15.412,35.091-35.091V342.208H438.245z"/>
	</g>
</g>
<g>
	<g>
		<rect x="57.343" y="392.563" width="396.184" height="33.959"/>
	</g>
</g>
<g>
	<g>
		<path d="M289.959,119.213H220.91c-9.378,0-16.979,7.601-16.979,16.979v108.102h33.959v-91.122h35.091v91.122h33.959V136.193
			C306.939,126.814,299.338,119.213,289.959,119.213z"/>
	</g>
</g>
<g>
	<g>
		<path d="M291.912,29.806L267.575,4.903c-6.39-6.537-17.896-6.537-24.286,0l-24.196,24.761
			c-20.279,20.273-20.386,52.585-0.255,73.566c9.39,9.797,22.73,15.417,36.596,15.417c13.872,0,27.207-5.62,36.341-15.163
			C312.055,83.211,312.157,50.894,291.912,29.806z M267.518,79.736c-6.039,6.299-18.123,6.299-24.156,0
			c-0.006-0.006-0.011-0.011-0.011-0.011c-7.222-7.522-7.329-18.96-0.108-26.182l12.191-12.474l12.095,12.367
			C274.746,60.957,274.853,72.396,267.518,79.736z"/>
	</g>
</g>
<g>
	<g>
		<path d="M152.993,153.738H84.51c-9.378,0-16.979,7.601-16.979,16.979v73.577h33.959v-56.598h34.525v56.598h33.959v-73.577
			C169.972,161.339,162.371,153.738,152.993,153.738z"/>
	</g>
</g>
<g>
	<g>
		<path d="M155.511,63.77l-24.337-24.903c-6.39-6.537-17.896-6.537-24.286,0L82.693,63.629
			c-20.279,20.273-20.386,52.591-0.243,73.571c0.079,0.079,0.158,0.164,0.243,0.243c10.188,10.193,23.262,15.287,36.341,15.287
			c13.08,0,26.154-5.094,36.341-15.281C175.649,117.176,175.756,84.858,155.511,63.77z M131.367,113.435
			c-6.865,6.865-17.619,6.916-24.541,0.119c-7.097-7.522-7.16-18.87,0.017-26.052l12.191-12.48l12.089,12.372
			C138.34,94.916,138.447,106.354,131.367,113.435z"/>
	</g>
</g>
<g>
	<g>
		<path d="M426.366,153.738h-68.489c-9.378,0-16.979,7.601-16.979,16.979v73.577h33.959v-56.598h34.53v56.598h33.959v-73.577
			C443.345,161.339,435.744,153.738,426.366,153.738z"/>
	</g>
</g>
<g>
	<g>
		<path d="M428.318,63.77l-24.343-24.903c-6.39-6.537-17.896-6.537-24.286,0l-24.195,24.761
			c-20.273,20.279-20.381,52.591-0.243,73.571c0.079,0.085,0.159,0.164,0.243,0.249c10.193,10.188,23.262,15.281,36.341,15.281
			c13.08,0,26.159-5.094,36.353-15.276C448.456,117.176,448.558,84.858,428.318,63.77z M404.174,113.435
			c-6.877,6.865-17.613,6.916-24.546,0.119c-7.097-7.522-7.165-18.875,0.017-26.052l12.191-12.48l12.095,12.367
			C411.146,94.916,411.254,106.354,404.174,113.435z"/>
	</g>
</g>
<g>
</g>
<g>
</g>
<g>
</g>
<g>
</g>
<g>
</g>
<g>
</g>
<g>
</g>
<g>
</g>
<g>
</g>
<g>
</g>
<g>
</g>
<g>
</g>
<g>
</g>
<g>
</g>
<g>
</g>
</svg>
