<svg id="Layer_1" enable-background="new 0 0 512 512" height="512" viewBox="0 0 512 512" width="512" xmlns="http://www.w3.org/2000/svg"><path d="m497 369.533c-73.419 0-137.225-30.971-181.382-75.128 0 0-7.413-7.413-16.864-16.865l96.342 25.815c49.458 13.252 100.476-16.203 113.729-65.661 12.024-44.875-11.115-91.034-52.455-109.098 5.026-44.835-23.38-87.954-68.255-99.978-49.458-13.252-100.477 16.203-113.729 65.661l-10.817 40.368v-41.788c0-51.203-41.656-92.859-92.859-92.859-46.458 0-85.055 34.297-91.804 78.905-44.609 6.749-78.906 45.347-78.906 91.805 0 51.203 41.657 92.859 92.859 92.859h41.784l-40.349 10.808c-49.459 13.248-78.918 64.265-65.67 113.724 12.021 44.875 55.137 73.284 99.972 68.262 18.062 41.343 64.219 64.485 109.095 52.464 49.459-13.248 78.919-64.265 65.67-113.724l-25.804-96.333 16.847 16.848c49.319 49.319 120.583 83.915 202.595 83.915 8.284 0 15-6.716 15-15s-6.715-15-14.999-15zm-193.636-267.489c8.971-33.48 43.507-53.419 76.987-44.448 33.475 8.97 53.411 43.505 44.44 76.985-2.144 8.002 2.605 16.227 10.607 18.371 33.48 8.971 53.42 43.503 44.45 76.978-8.971 33.48-43.507 53.419-76.986 44.448l-115.426-30.928 83.06-47.956c7.174-4.142 9.632-13.316 5.49-20.49s-13.315-9.632-20.49-5.49l-83.06 47.956zm-273.364 68.666c0-34.656 28.199-62.851 62.859-62.851 8.284 0 15-6.716 15-15 0-34.661 28.195-62.859 62.851-62.859 34.661 0 62.859 28.198 62.859 62.859v119.498l-67.821-67.821c-5.857-5.858-15.355-5.858-21.213 0s-5.858 15.355 0 21.213l67.821 67.821h-119.497c-34.66-.001-62.859-28.199-62.859-62.86zm199.929 309.139c-33.476 8.967-68.007-10.976-76.975-44.456-2.143-8.002-10.368-12.751-18.37-10.608-33.48 8.968-68.013-10.97-76.981-44.446-8.968-33.48 10.973-68.015 44.454-76.983l115.409-30.914-47.953 83.054c-4.142 7.174-1.684 16.348 5.49 20.49 7.176 4.144 16.348 1.685 20.49-5.49l47.966-83.076 30.924 115.447c8.969 33.479-10.974 68.014-44.454 76.982z"/></svg>