<?xml version="1.0" encoding="iso-8859-1"?>
<!-- Generator: Adobe Illustrator 19.0.0, SVG Export Plug-In . SVG Version: 6.00 Build 0)  -->
<svg version="1.1" id="Capa_1" xmlns="http://www.w3.org/2000/svg" xmlns:xlink="http://www.w3.org/1999/xlink" x="0px" y="0px"
	 viewBox="0 0 512 512" style="enable-background:new 0 0 512 512;" xml:space="preserve">
<g>
	<g>
		<circle cx="286" cy="346" r="15"/>
	</g>
</g>
<g>
	<g>
		<circle cx="226" cy="256" r="15"/>
	</g>
</g>
<g>
	<g>
		<path d="M447.389,426.238L365.756,331H406c5.82,0,11.115-3.367,13.584-8.638s1.665-11.494-2.061-15.965L338.026,211H346
			c12.131,0,19.523-13.964,12-24L280.525,83.7C292.839,75.662,301,61.77,301,46c0-24.867-20.096-46-45-46c-24.873,0-45,21.096-45,46
			c0,15.77,8.161,29.662,20.475,37.7L154,187c-7.411,9.882-0.323,23.9,12,23.9h7.974c-15.259,18.311-77.76,93.415-79.524,95.531
			C86.266,316.323,93.499,331,106,331h40.245l-81.633,95.238c-3.812,4.448-4.687,10.708-2.239,16.03C64.82,447.59,70.142,451,76,451
			h135v46c0,8.284,6.716,15,15,15h60c8.284,0,15-6.716,15-15v-46h135c5.858,0,11.18-3.41,13.628-8.732
			C452.075,436.946,451.201,430.686,447.389,426.238z M256,30c7.991,0,15,7.477,15,16c0,8.271-6.729,15-15,15s-15-6.729-15-15
			C241,37.477,248.009,30,256,30z M256,101l60,80h-4.377c-28.591,0-54.295-15.886-67.082-41.459l-6.979-13.958L256,101z
			 M138.025,301l79.498-95.397c3.726-4.471,4.529-10.694,2.061-15.965C217.116,184.367,211.82,181,206,181h-10l21.438-28.583
			l0.271,0.541c15.621,31.241,45.766,52.715,80.545,57.175l1.542,1.85C292.068,263.142,248.467,301,196,301h-17.142H138.025z
			 M271,482h-30v-31h30V482z M108.613,421l63.478-74.057c27.972,30.96,62.035,56.317,99.766,74.057
			C264.84,421,114.536,421,108.613,421z M198.175,330.974c57.423-0.916,106.983-37.845,125.331-90.538L373.975,301h-40.832
			c-5.858,0-11.18,3.41-13.628,8.732c-2.447,5.322-1.573,11.582,2.239,16.03l81.616,95.218
			C325.589,420.25,251.06,387.183,198.175,330.974z"/>
	</g>
</g>
<g>
</g>
<g>
</g>
<g>
</g>
<g>
</g>
<g>
</g>
<g>
</g>
<g>
</g>
<g>
</g>
<g>
</g>
<g>
</g>
<g>
</g>
<g>
</g>
<g>
</g>
<g>
</g>
<g>
</g>
</svg>
