<?xml version="1.0" encoding="iso-8859-1"?>
<!-- Generator: Adobe Illustrator 21.0.0, SVG Export Plug-In . SVG Version: 6.00 Build 0)  -->
<svg xmlns="http://www.w3.org/2000/svg" xmlns:xlink="http://www.w3.org/1999/xlink" version="1.1" id="Capa_1" x="0px" y="0px" viewBox="0 0 512 512" style="enable-background:new 0 0 512 512;" xml:space="preserve" width="512" height="512">
<path d="M472.889,265.797l-5.67-7.558c-26.958-35.945-69.879-57.405-114.835-57.405c-5.972,0-11.924,0.283-17.846,0.793  c-3.649-36.204-21.104-70.073-48.575-94.035c10.48-8.652,17.171-21.738,17.171-36.358c0-25.989-21.144-47.133-47.133-47.133  s-47.133,21.144-47.133,47.133c0,14.62,6.691,27.706,17.171,36.358c-27.467,23.959-44.92,57.821-48.573,94.018  c-5.89-0.504-11.846-0.776-17.864-0.776c-44.936,0-87.862,21.463-114.827,57.413l-5.663,7.551C16.931,269.619,0,288.98,0,312.233  c0,25.989,21.144,47.133,47.133,47.133s47.133-21.144,47.133-47.133c0-1.754-0.104-3.484-0.292-5.189  c8.008,4.4,15.442,9.958,22.082,16.599c18.406,18.406,28.543,42.878,28.543,68.907v3.658c-18.672,6.415-32.133,24.142-32.133,44.976  c0,25.81,20.883,46.715,46.715,46.715H352.4c26.304,0,47.133-21.351,47.133-47.133v-0.016c0-20.742-13.479-38.384-32.133-44.66  v-3.523c0-36.772,20.472-68.85,50.615-85.444c-0.182,1.68-0.282,3.384-0.282,5.111c0,25.989,21.144,47.133,47.133,47.133  S512,338.223,512,312.233C512,288.98,495.068,269.618,472.889,265.797z M256,54.1c9.447,0,17.133,7.686,17.133,17.133  S265.447,88.367,256,88.367s-17.133-7.686-17.133-17.133S246.553,54.1,256,54.1z M252.141,125.013l3.859-2.895l3.861,2.896  c25.885,19.414,42.268,49.293,44.995,81.317c-16.991,3.981-33.438,10.104-48.921,18.225c-15.253-8.014-31.612-14.193-48.792-18.229  C209.87,174.309,226.253,144.429,252.141,125.013z M47.133,329.367c-9.447,0-17.133-7.686-17.133-17.133S37.686,295.1,47.133,295.1  s17.133,7.686,17.133,17.133S56.581,329.367,47.133,329.367z M137.27,302.43c-17.268-17.269-38.617-28.971-61.874-34.208  c21.375-23.578,52.143-37.389,84.22-37.389c92.98,0,169.518,71.747,177.157,162.8H174.6v-1.083  C174.6,358.508,161.343,326.502,137.27,302.43z M369.533,440.767c0,9.335-7.546,17.133-17.133,17.133H159.182  c-9.23,0-16.715-7.454-16.715-16.731c0-9.669,7.866-17.535,17.535-17.535H352.4h0.016c9.438,0,17.117,7.679,17.117,17.117V440.767z   M352.769,331.929c-0.012,0.004-0.025,0.005-0.036,0.009c-13.999-35.131-37.324-65.566-66.895-88.25  c0.048-0.007,0.09-0.02,0.14-0.025c20.991-8.438,43.563-12.83,66.43-12.83c32.073,0,62.849,13.823,84.222,37.418  C400.428,276.469,370.035,300.136,352.769,331.929z M464.867,329.367c-9.447,0-17.133-7.686-17.133-17.133  s7.686-17.133,17.133-17.133S482,302.786,482,312.233S474.314,329.367,464.867,329.367z"/>















</svg>
