<svg id="Layer_1" enable-background="new 0 0 512 512" height="512" viewBox="0 0 512 512" width="512" xmlns="http://www.w3.org/2000/svg"><path d="m391.588 306.939c4.231-153.06 30.693-263.346 32.709-275.939h-336.594c1.955 12.212 28.491 123.34 32.708 275.939-49.329 5.664-120.411 19.205-120.411 69.061 0 81.614 173.682 105 256 105 82.206 0 256-23.354 256-105 0-49.855-71.078-63.397-120.412-69.061zm-241.354-5.94h211.533c-.495 15.994-.767 31.988-.767 47.971v33.769c-32.842 5.416-68.865 8.261-105 8.261s-72.158-2.845-105-8.261v-33.769c0-15.983-.272-31.977-.766-47.971zm150.766-29.999h-30v-210.001h42.451c-8.256 54.927-12.451 110.763-12.451 166.242zm-60 0h-30v-43.759c0-55.479-4.195-111.314-12.451-166.241h42.451zm121.982 0h-31.982v-43.759c0-55.493 4.305-111.354 12.79-166.242h44.023c-13.001 69.243-21.293 139.555-24.831 210.001zm-194.772-210c8.485 54.889 12.79 110.749 12.79 166.241v43.759h-31.982c-3.537-70.446-11.83-140.757-24.83-210zm87.79 390c-92.051 0-226-28.088-226-75 0-26.082 65.257-35.806 90.948-38.904.031 3.958.052 70.646.052 70.646 7.979 1.152 57.177 13.258 135 13.258 77.814 0 127.078-12.114 135-13.257 0 0 .021-66.688.052-70.646 25.691 3.097 90.948 12.821 90.948 38.903 0 54.523-161.787 75-226 75z"/><path d="m181 331h30v30h-30z" transform="matrix(.707 .707 -.707 .707 302.066 -37.252)"/><path d="m241 331h30v30h-30z" transform="matrix(.707 .707 -.707 .707 319.64 -79.678)"/><path d="m301 331h30v30h-30z" transform="matrix(.707 .707 -.707 .707 337.213 -122.105)"/></svg>