<?xml version="1.0" encoding="iso-8859-1"?>
<!-- Generator: Adobe Illustrator 19.0.0, SVG Export Plug-In . SVG Version: 6.00 Build 0)  -->
<svg version="1.1" id="Capa_1" xmlns="http://www.w3.org/2000/svg" xmlns:xlink="http://www.w3.org/1999/xlink" x="0px" y="0px"
	 viewBox="0 0 512 512" style="enable-background:new 0 0 512 512;" xml:space="preserve">
<g>
	<g>
		<path d="M347.336,154.11c-33.764,0-65.182,10.221-91.336,27.722c-26.154-17.501-57.572-27.722-91.336-27.722
			C73.868,154.11,0,227.979,0,318.775s73.868,164.664,164.664,164.664c32.374,0,64.46-9.713,91.382-27.691
			c26.145,17.482,57.546,27.691,91.29,27.691c90.796,0,164.664-73.868,164.664-164.664S438.132,154.11,347.336,154.11z
			 M164.663,453.437C90.41,453.439,30,393.029,30,318.775S90.41,184.11,164.664,184.11c24.297,0,47.111,6.47,66.812,17.774
			c-5.308,5.261-10.256,10.883-14.813,16.82c-15.569-8.123-33.256-12.724-51.999-12.724c-62.194,0-112.794,50.599-112.794,112.794
			c0,62.194,50.6,112.793,112.794,112.793c33.644,0,66.183-15.486,87.441-41.545c23.667-29.012,31.503-69.799,19.969-105.688
			c3.743-8.147,8.764-15.583,14.812-22.05c-1.847,2.171,4.152,11.546,5.015,13.67c2.883,7.097,4.583,14.891,5.79,22.434
			c5.35,33.425-3.179,68.667-22.348,96.469C250.513,430.871,208.461,453.437,164.663,453.437z M200.554,393.359
			c-0.182,0.089-0.364,0.181-0.548,0.268c-11.007,5.223-23.161,7.941-35.342,7.941c-45.652,0-82.794-37.141-82.794-82.793
			c0-45.653,37.142-82.794,82.794-82.794c12.854,0,25.033,2.945,35.898,8.195c-11.436,22.408-17.892,47.763-17.892,74.599
			C182.67,345.605,189.124,370.955,200.554,393.359z M347.336,453.439c-24.27,0-47.059-6.456-66.745-17.737
			c2.721-2.698,5.359-5.494,7.901-8.391c2.404-2.74,4.707-5.554,6.912-8.431c15.553,8.101,33.216,12.689,51.932,12.689
			c62.194,0,112.794-50.599,112.794-112.793c0-62.195-50.6-112.794-112.794-112.794S234.542,256.58,234.542,318.775
			c0,11.978,1.884,23.523,5.359,34.362c-3.736,8.115-8.759,15.566-14.816,22.073c-7.96-17.175-12.414-36.294-12.414-56.436
			c0-74.254,60.41-134.665,134.665-134.665C421.59,184.11,482,244.521,482,318.775S421.59,453.439,347.336,453.439z
			 M311.484,244.159c11.681-4.845,23.054-8.178,35.851-8.178c45.652,0,82.794,37.141,82.794,82.794
			c0,45.652-37.142,82.793-82.794,82.793c-12.844,0-25.014-2.94-35.873-8.182c2.336-4.593,4.438-9.29,6.308-14.072
			C334.709,336.003,332.599,285.785,311.484,244.159z"/>
	</g>
</g>
<g>
	<g>
		<path d="M311.755,43.543c-9.699-9.666-22.544-14.982-36.188-14.982c-0.059,0-0.118,0-0.177,0
			c-6.702,0.022-13.276,1.344-19.391,3.868c-6.116-2.524-12.692-3.846-19.396-3.868c-13.723-0.016-26.622,5.277-36.361,14.984
			c-9.737,9.706-15.101,22.601-15.101,36.31c0.001,13.089,4.933,25.552,13.886,35.092l38.378,40.895
			c4.8,5.115,11.576,8.05,18.595,8.051c7.015,0,13.792-2.934,18.594-8.05l38.378-40.896c8.953-9.54,13.885-22.002,13.886-35.094
			C326.858,66.145,321.495,53.25,311.755,43.543z M291.097,94.418L256,131.816l-35.097-37.399c-3.714-3.958-5.76-9.131-5.761-14.564
			c0.001-5.676,2.231-11.024,6.28-15.061c4.034-4.02,9.363-6.231,15.014-6.231c0.023,0,0.048,0,0.071,0
			c3.994,0.013,7.872,1.132,11.227,3.239c4.899,3.234,11.425,3.275,16.363,0.108c3.393-2.176,7.333-3.333,11.395-3.347
			c0.024,0,0.048,0,0.072,0c5.65,0,10.98,2.211,15.014,6.231c4.05,4.037,6.28,9.385,6.28,15.06
			C296.857,85.287,294.811,90.46,291.097,94.418z"/>
	</g>
</g>
<g>
</g>
<g>
</g>
<g>
</g>
<g>
</g>
<g>
</g>
<g>
</g>
<g>
</g>
<g>
</g>
<g>
</g>
<g>
</g>
<g>
</g>
<g>
</g>
<g>
</g>
<g>
</g>
<g>
</g>
</svg>
