<svg id="Layer_1" enable-background="new 0 0 512.119 512.119" height="512" viewBox="0 0 512.119 512.119" width="512" xmlns="http://www.w3.org/2000/svg"><path d="m510.824 492.521-110.005-480.092c-1.944-8.484-10.312-13.854-18.835-12.096-169.086 34.959-311.805 145.603-379.761 300.786-3.636 8.302.351 17.977 8.789 21.304l478.348 188.557c11.957 4.713 24.334-5.933 21.464-18.459zm-127.246-412.06c-52.121 22.442-109.331 34.199-159.002 64.625-62.264 38.138-113.446 96.198-148.715 168.502l-37.389-14.738c64.628-134.418 189.528-229.192 334.706-263.779zm-277.835 244.906c32.545-65.761 79.15-118.448 135.548-152.994 44.445-27.224 97.429-38.579 149.543-60.247l82.018 357.949z"/><path d="m202.286 253.191c-25.553 12.083-35.742 41.893-22.948 66.217 12.502 23.767 42.876 33.584 67.727 21.833 25.553-12.083 35.742-41.893 22.948-66.217-12.511-23.784-42.891-33.58-67.727-21.833zm40.427 48.928c-4.975 14.893-27.703 16.367-35.054 2.393-4.215-8.011-.949-18.015 8.308-22.393 14.632-6.92 31.545 5.634 26.746 20z"/><path d="m330.621 229.414c-25.54 12.077-35.75 41.879-22.947 66.217 12.501 23.767 42.872 33.586 67.727 21.833 25.553-12.083 35.742-41.893 22.948-66.217-12.512-23.783-42.894-33.577-67.728-21.833zm40.427 48.928c-4.975 14.893-27.704 16.367-35.054 2.393-4.215-8.015-.948-18.016 8.307-22.393 14.607-6.909 31.552 5.614 26.747 20z"/><path d="m365.321 359.363c-10.741 5.08-15.105 17.453-9.748 27.638 5.357 10.184 18.407 14.323 29.148 9.243s15.105-17.453 9.748-27.638c-5.357-10.184-18.407-14.322-29.148-9.243z"/></svg>