<?xml version="1.0" encoding="iso-8859-1"?>
<!-- Generator: Adobe Illustrator 19.0.0, SVG Export Plug-In . SVG Version: 6.00 Build 0)  -->
<svg version="1.1" id="Layer_1" xmlns="http://www.w3.org/2000/svg" xmlns:xlink="http://www.w3.org/1999/xlink" x="0px" y="0px"
	 viewBox="0 0 512 512" style="enable-background:new 0 0 512 512;" xml:space="preserve">
<g>
	<g>
		<path d="M294.614,258.042l80.362-50.699V0H137.024v207.343l80.362,50.699c-52.835,16.481-91.294,65.858-91.294,124.05
			C126.092,453.723,184.368,512,256,512s129.908-58.277,129.908-129.909C385.908,323.9,347.449,274.523,294.614,258.042z
			 M297.849,30h47.127v160.798l-47.127,29.731V30z M214.151,220.529l-47.127-29.731V30h47.127V220.529z M244.151,30h23.697v209.456
			L256,246.931l-11.849-7.475V30z M256,482c-55.09,0-99.908-44.819-99.908-99.909c0-54.975,44.634-99.719,99.568-99.904l0.341,0.215
			l0.341-0.215c54.934,0.185,99.568,44.928,99.568,99.904C355.908,437.181,311.09,482,256,482z"/>
	</g>
</g>
<g>
	<g>
		<path d="M256,306c-41.957,0-76.092,34.134-76.092,76.091c0,41.957,34.135,76.092,76.092,76.092s76.092-34.135,76.092-76.092
			C332.092,340.134,297.957,306,256,306z M256,428.183c-25.415,0-46.092-20.677-46.092-46.092C209.908,356.676,230.585,336,256,336
			s46.092,20.676,46.092,46.091C302.092,407.506,281.415,428.183,256,428.183z"/>
	</g>
</g>
<g>
</g>
<g>
</g>
<g>
</g>
<g>
</g>
<g>
</g>
<g>
</g>
<g>
</g>
<g>
</g>
<g>
</g>
<g>
</g>
<g>
</g>
<g>
</g>
<g>
</g>
<g>
</g>
<g>
</g>
</svg>
