<?xml version="1.0" encoding="iso-8859-1"?>
<!-- Generator: Adobe Illustrator 19.0.0, SVG Export Plug-In . SVG Version: 6.00 Build 0)  -->
<svg version="1.1" id="Layer_1" xmlns="http://www.w3.org/2000/svg" xmlns:xlink="http://www.w3.org/1999/xlink" x="0px" y="0px"
	 viewBox="0 0 512 512" style="enable-background:new 0 0 512 512;" xml:space="preserve">
<g>
	<g>
		<path d="M372.48,299.634c75.213-8.154,133.955-72.028,133.955-149.373C506.435,67.407,439.028,0,356.174,0
			c-58.4,0-109.122,33.49-133.977,82.273c-20.552-10.163-43.157-15.49-66.371-15.49c-82.854,0-150.261,67.407-150.261,150.261
			c0,74.383,54.331,136.303,125.39,148.191c-8.021,18.343-4.55,40.543,10.439,55.532l19.56,19.561c6.51,6.51,6.51,17.102,0,23.611
			l-19.561,19.561c-6.52,6.52-6.52,17.091,0,23.611c6.519,6.52,17.091,6.521,23.611,0l19.561-19.561
			c19.527-19.528,19.527-51.305,0-70.833l-19.561-19.561c-6.509-6.51-6.509-17.102,0-23.611l7.152-7.152
			c50.374-5.518,94.708-36.275,117.633-81.357c12.906,6.383,26.853,10.963,41.513,13.417c-8.021,18.343-4.55,40.543,10.439,55.532
			l19.56,19.561c6.51,6.51,6.51,17.102,0,23.611l-19.561,19.561c-19.528,19.528-19.528,51.305,0,70.833l19.561,19.561
			c6.519,6.52,17.091,6.521,23.611,0c6.52-6.52,6.52-17.091,0-23.611l-19.561-19.561c-6.509-6.51-6.509-17.102,0-23.611
			l19.561-19.561c19.527-19.528,19.527-51.305,0-70.833l-19.561-19.561c-6.509-6.51-6.509-17.102,0-23.611L372.48,299.634z
			 M155.826,333.913c-64.442,0-116.87-52.428-116.87-116.87c0-64.442,52.428-116.87,116.87-116.87
			c19.181,0,37.827,4.668,54.585,13.565c-2.932,11.697-4.498,23.929-4.498,36.522c0,47.006,21.701,89.032,55.605,116.606
			C242.362,307.409,201.296,333.913,155.826,333.913z M356.174,267.13c-64.442,0-116.87-52.428-116.87-116.87
			s52.428-116.87,116.87-116.87s116.87,52.428,116.87,116.87S420.616,267.13,356.174,267.13z"/>
	</g>
</g>
<g>
	<g>
		<path d="M356.174,66.783c-46.03,0-83.478,37.448-83.478,83.478c0,9.22,7.475,16.696,16.696,16.696s16.696-7.475,16.696-16.696
			c0-27.618,22.469-50.087,50.087-50.087c9.22,0,16.696-7.475,16.696-16.696S365.394,66.783,356.174,66.783z"/>
	</g>
</g>
<g>
	<g>
		<path d="M155.826,133.565c-46.03,0-83.478,37.448-83.478,83.478c0,9.22,7.475,16.696,16.696,16.696
			c9.22,0,16.696-7.475,16.696-16.696c0-27.618,22.469-50.087,50.087-50.087c9.22,0,16.696-7.475,16.696-16.696
			S165.047,133.565,155.826,133.565z"/>
	</g>
</g>
<g>
</g>
<g>
</g>
<g>
</g>
<g>
</g>
<g>
</g>
<g>
</g>
<g>
</g>
<g>
</g>
<g>
</g>
<g>
</g>
<g>
</g>
<g>
</g>
<g>
</g>
<g>
</g>
<g>
</g>
</svg>
