<?xml version="1.0" encoding="iso-8859-1"?>
<!-- Generator: Adobe Illustrator 19.0.0, SVG Export Plug-In . SVG Version: 6.00 Build 0)  -->
<svg version="1.1" id="Capa_1" xmlns="http://www.w3.org/2000/svg" xmlns:xlink="http://www.w3.org/1999/xlink" x="0px" y="0px"
	 viewBox="0 0 512 512" style="enable-background:new 0 0 512 512;" xml:space="preserve">
<g>
	<g>
		<path d="M467,120h-31.041C445.397,107.456,451,91.871,451,75c0-41.355-33.645-75-75-75c-28.136,0-53.663,15.528-66.62,40.523
			c-5.719,11.033-12.159,23.07-19.78,34.586C281.351,65.848,269.348,60,256,60c-13.348,0-25.351,5.848-33.6,15.109
			c-7.621-11.516-14.062-23.553-19.78-34.586C189.663,15.528,164.136,0,136,0C94.645,0,61,33.645,61,75
			c0,16.871,5.603,32.456,15.041,45H45c-24.813,0-45,20.187-45,45v30c0,19.556,12.539,36.239,30,42.43V467c0,24.872,21.096,45,46,45
			h360c24.866,0,46-20.096,46-45V237.43c17.461-6.191,30-22.873,30-42.43v-30C512,140.187,491.813,120,467,120z M300.645,110.551
			c15.088-18.095,26.13-38.396,35.37-56.221C343.793,39.323,359.115,30,376,30c24.813,0,45,20.187,45,45s-20.187,45-45,45h-13.698
			c9.785-9.094,17.915-19.892,23.948-31.958l3.167-6.334c3.704-7.41,0.7-16.42-6.709-20.124c-7.412-3.706-16.421-0.701-20.125,6.709
			l-3.166,6.334c-12.061,24.121-34.626,40.356-60.662,44.385C299.648,116.295,300.285,113.466,300.645,110.551z M241.108,103.274
			C241.967,95.814,248.313,90,256,90s14.033,5.814,14.893,13.274c-0.113,1.096-0.103,2.199,0.025,3.292
			C270.132,114.104,263.743,120,256,120c-7.743,0-14.132-5.896-14.917-13.434C241.211,105.473,241.22,104.371,241.108,103.274z
			 M136,30c16.885,0,32.207,9.323,39.985,24.33c9.239,17.825,20.281,38.126,35.369,56.22c0.36,2.915,0.998,5.744,1.89,8.461
			c-26.035-4.029-48.601-20.263-60.661-44.384l-3.167-6.334c-3.706-7.41-12.715-10.414-20.125-6.709
			c-7.409,3.705-10.413,12.715-6.709,20.124l3.168,6.335c6.032,12.065,14.162,22.863,23.947,31.957H136c-24.813,0-45-20.187-45-45
			S111.187,30,136,30z M181,482H76c-8.523,0-16-7.009-16-15V240h121V482z M181,210H45c-8.271,0-15-6.729-15-15v-30
			c0-8.271,6.729-15,15-15c6.186,0,128.973,0,136,0V210z M301,482h-30v-15c0-8.284-6.716-15-15-15s-15,6.716-15,15v15h-30V150h30v15
			c0,8.284,6.716,15,15,15s15-6.716,15-15v-15h30V482z M452,467c0,7.991-7.477,15-16,15H331V240h121V467z M482,195
			c0,8.271-6.729,15-15,15H331v-60c7.028,0,129.815,0,136,0c8.271,0,15,6.729,15,15V195z"/>
	</g>
</g>
<g>
</g>
<g>
</g>
<g>
</g>
<g>
</g>
<g>
</g>
<g>
</g>
<g>
</g>
<g>
</g>
<g>
</g>
<g>
</g>
<g>
</g>
<g>
</g>
<g>
</g>
<g>
</g>
<g>
</g>
</svg>
