<svg id="Capa_1" enable-background="new 0 0 512 512" height="512" viewBox="0 0 512 512" width="512" xmlns="http://www.w3.org/2000/svg"><g><path d="m379.688 132.338c-12.422-36.515-35.913-69.189-66.782-92.659-34.14-25.958-74.912-39.679-117.906-39.679-107.523 0-195 87.477-195 195 0 85.604 55.447 158.499 132.313 184.663 12.409 36.471 35.85 69.107 66.667 92.573 34.163 26.013 74.974 39.764 118.02 39.764 107.523 0 195-87.477 195-195 0-85.603-55.447-158.498-132.312-184.662zm-349.688 62.662c0-90.981 74.019-165 165-165 63.864 0 121.825 37.525 148.886 93.862-8.792-1.218-17.764-1.862-26.886-1.862-2.778 0-5.548.067-8.311.183-24.731-38.586-67.44-62.183-113.689-62.183-74.439 0-135 60.561-135 135s60.561 135 135 135c35.663 0 69.296-13.778 94.705-38.798 21.678-21.345 35.265-48.801 39.135-78.531 10.251 1.156 20.061 3.788 29.208 7.688-12.24 80.298-80.609 139.641-163.048 139.641-90.981 0-165-74.019-165-165zm244.693-68.369c-33.158 7.344-63.99 23.271-89.448 46.621-29.704 27.243-50.006 62.606-58.599 101.385-22.421-19.271-36.646-47.823-36.646-79.637 0-57.897 47.103-105 105-105 31.006 0 59.964 13.643 79.693 36.631zm-60.995 171.674c7.806-42.79 41.919-76.795 84.603-84.607-7.801 42.806-41.893 76.803-84.603 84.607zm171.656-60.943c22.421 19.272 36.646 47.824 36.646 79.638 0 57.897-47.103 105-105 105-31.023 0-59.968-13.64-79.692-36.63 33.191-7.351 64.049-23.301 89.522-46.69 29.667-27.238 49.939-62.572 58.524-101.318zm-68.354 244.638c-63.895 0-121.834-37.517-148.891-93.863 8.793 1.219 17.768 1.863 26.891 1.863 2.78 0 5.552-.067 8.316-.184 24.73 38.593 67.41 62.184 113.684 62.184 74.439 0 135-60.561 135-135s-60.561-135-135-135c-35.61 0-69.208 13.743-94.604 38.698-21.732 21.354-35.358 48.851-39.235 78.63-10.251-1.156-20.062-3.788-29.209-7.688 12.245-80.286 80.642-139.64 163.048-139.64 90.981 0 165 74.019 165 165s-74.019 165-165 165z"/><path d="m432.29 125.61c2.812 2.813 6.628 4.394 10.606 4.394s7.794-1.58 10.606-4.394l44.589-44.589c8.97-8.962 13.909-20.881 13.909-33.563 0-12.683-4.939-24.602-13.918-33.572-14.869-14.831-37.274-17.837-55.177-8.679-17.907-9.186-40.328-6.176-55.205 8.688-8.969 8.962-13.908 20.881-13.908 33.563s4.939 24.601 13.904 33.558zm-23.386-90.493c3.407-3.403 7.886-5.12 12.369-5.12 4.15 0 8.305 1.471 11.616 4.437 5.694 5.098 14.308 5.102 20.004.008 6.896-6.164 17.439-5.863 23.993.676 3.298 3.294 5.113 7.677 5.113 12.341 0 4.663-1.815 9.046-5.117 12.345l-33.986 33.986-33.991-33.992c-3.297-3.294-5.113-7.677-5.113-12.34 0-4.664 1.816-9.047 5.112-12.341z"/></g></svg>