<?xml version="1.0" encoding="iso-8859-1"?>
<!-- Generator: Adobe Illustrator 21.0.0, SVG Export Plug-In . SVG Version: 6.00 Build 0)  -->
<svg xmlns="http://www.w3.org/2000/svg" xmlns:xlink="http://www.w3.org/1999/xlink" version="1.1" id="Capa_1" x="0px" y="0px" viewBox="0 0 512 512" style="enable-background:new 0 0 512 512;" xml:space="preserve" width="512" height="512">
<g>
	<path d="M69.904,267.926c-13.006,24.228-19.88,51.572-19.88,79.074c0,90.981,74.019,165,165,165   c34.427,0,67.145-10.389,95.035-30.103c4.108,0.284,8.213,0.014,12.217-0.827c5.921,17.944,22.847,30.93,42.748,30.93   s36.827-12.986,42.748-30.93c18.181,3.819,38.05-4.014,48.186-21.57c9.952-17.241,7.163-38.401-5.426-52.5   c12.591-14.1,15.379-35.259,5.426-52.498c-10.102-17.5-29.949-25.406-48.186-21.572c-5-15.154-17.85-26.771-33.712-30.017   c-8.975-32.545-27.687-61.872-53.099-83.362c18.849-23.743,29.063-52.846,29.063-83.551c0-74.991-60.561-136-135-136   s-135,61.009-135,136c0,30.701,10.215,59.802,29.058,83.543C93.221,232.926,79.845,249.406,69.904,267.926z M274.091,354.5   c-7.536,13.052-7.762,28.351-1.965,41.133C257.951,412.288,237.206,422,215.023,422c-41.355,0-75-33.645-75-75   c0-41.907,33.645-76,75-76c38.556,0,70.397,29.638,74.533,67.61C283.217,342.479,277.907,347.889,274.091,354.5z M402.522,368.029   l6.964-4.02c7.177-4.145,16.342-1.692,20.489,5.491c4.135,7.162,1.672,16.354-5.489,20.49l-6.962,4.019   c-9.978,5.76-9.999,20.21,0,25.981l6.961,4.019c7.162,4.135,9.625,13.328,5.49,20.491c-4.143,7.176-13.309,9.637-20.491,5.49   l-6.962-4.019c-9.96-5.751-22.499,1.424-22.499,12.991V467c0,8.271-6.729,15-15,15s-15-6.729-15-15v-8.038   c0-11.608-12.575-18.719-22.499-12.991l-6.963,4.02c-7.178,4.144-16.346,1.689-20.489-5.49c-4.136-7.164-1.673-16.356,5.488-20.491   l6.962-4.019c9.978-5.76,9.999-20.21,0-25.981l-6.96-4.018c-7.163-4.137-9.626-13.329-5.49-20.493   c4.135-7.163,13.292-9.646,20.49-5.489l6.962,4.019c9.96,5.751,22.499-1.424,22.499-12.991V347c0-8.271,6.729-15,15-15   s15,6.729,15,15v8.038C380.023,366.54,392.505,373.811,402.522,368.029z M141.626,210.928   c-20.379-19.966-31.602-46.576-31.602-74.928c0-58.449,47.103-106,105-106c57.897,0,105,47.551,105,106   c0,28.352-11.223,54.961-31.602,74.928c-3.218,3.152-4.849,7.583-4.441,12.068c0.406,4.486,2.807,8.551,6.538,11.074   c25.414,17.179,44.452,43.349,53.554,73.117c-10.22,5.4-18.126,14.616-21.797,25.743c-1.078-0.227-2.164-0.398-3.255-0.543   C311.947,280.829,268.009,241,215.023,241c-57.897,0-105,47.551-105,106c0,57.897,47.103,105,105,105   c18.988,0,37.219-5.086,53.057-14.362c0.093,7.446,2.03,14.967,6.01,21.861c1.358,2.353,2.914,4.545,4.629,6.579   C259.263,476.54,237.595,482,215.023,482c-74.439,0-135-60.561-135-135c0-45.525,22.245-87.743,59.505-112.931   c3.731-2.522,6.131-6.588,6.538-11.073C146.473,218.51,144.843,214.08,141.626,210.928z"/>
	<circle cx="365.023" cy="407" r="15"/>
	<path d="M215.023,211c41.355,0,75-33.645,75-75c0-41.459-33.535-76-75-76c-41.458,0-75,34.535-75,76   C140.023,177.355,173.668,211,215.023,211z M215.023,90c24.393,0,45,21.065,45,46c0,24.813-20.187,45-45,45s-45-20.187-45-45   C170.023,111.065,190.631,90,215.023,90z"/>
</g>















</svg>
