<?xml version="1.0" encoding="iso-8859-1"?>
<!-- Generator: Adobe Illustrator 19.0.0, SVG Export Plug-In . SVG Version: 6.00 Build 0)  -->
<svg version="1.1" id="Layer_1" xmlns="http://www.w3.org/2000/svg" xmlns:xlink="http://www.w3.org/1999/xlink" x="0px" y="0px"
	 viewBox="0 0 512 512" style="enable-background:new 0 0 512 512;" xml:space="preserve">
<g>
	<g>
		<path d="M441.826,173.595l-24.174-96.699c-5.585-22.338-25.567-37.939-48.592-37.939H142.94
			c-23.026,0-43.007,15.602-48.592,37.939l-24.174,96.699C30.447,179.986,0,214.498,0,256v66.783
			c0,40.313,28.725,74.042,66.783,81.799v51.767c0,9.22,7.475,16.696,16.696,16.696h66.783c9.22,0,16.696-7.475,16.696-16.696
			v-50.087h178.087v50.087c0,9.22,7.475,16.696,16.696,16.696h66.783c9.22,0,16.696-7.475,16.696-16.696v-51.767
			C483.275,396.826,512,363.096,512,322.783V256C512,214.498,481.553,179.986,441.826,173.595z M126.743,84.994
			c1.861-7.446,8.523-12.646,16.197-12.646h226.118c7.676,0,14.336,5.2,16.197,12.646l21.884,87.527H104.861L126.743,84.994z
			 M33.391,272.696h16.696c21.767,0,40.336,13.956,47.226,33.391H33.391V272.696z M133.565,439.652h-33.391v-33.391h33.391V439.652z
			 M169.817,372.87c6.891-19.435,25.46-33.391,47.226-33.391h77.913c21.767,0,40.336,13.956,47.226,33.391H169.817z
			 M411.826,439.652h-33.391v-33.391h33.391V439.652z M428.522,372.87h-51.767c-7.756-38.057-41.485-66.783-81.799-66.783h-77.913
			c-40.313,0-74.042,28.725-81.799,66.783H83.478c-21.766,0-40.323-13.959-47.215-33.391h80.607c9.22,0,16.696-7.475,16.696-16.696
			c0-46.03-37.448-83.478-83.478-83.478H36.263c6.892-19.433,25.45-33.391,47.215-33.391h345.043
			c21.766,0,40.323,13.959,47.215,33.391h-13.824c-46.03,0-83.478,37.448-83.478,83.478c0,9.22,7.475,16.696,16.696,16.696h80.607
			C468.845,358.911,450.287,372.87,428.522,372.87z M478.609,306.087h-63.922c6.891-19.435,25.46-33.391,47.226-33.391h16.696
			V306.087z"/>
	</g>
</g>
<g>
	<g>
		<path d="M328.348,239.304H183.652c-9.22,0-16.696,7.475-16.696,16.696c0,9.22,7.475,16.696,16.696,16.696h144.696
			c9.22,0,16.696-7.475,16.696-16.696C345.043,246.78,337.568,239.304,328.348,239.304z"/>
	</g>
</g>
<g>
</g>
<g>
</g>
<g>
</g>
<g>
</g>
<g>
</g>
<g>
</g>
<g>
</g>
<g>
</g>
<g>
</g>
<g>
</g>
<g>
</g>
<g>
</g>
<g>
</g>
<g>
</g>
<g>
</g>
</svg>
