<?xml version="1.0" encoding="utf-8"?>
<!-- Generator: Adobe Illustrator 23.0.6, SVG Export Plug-In . SVG Version: 6.00 Build 0)  -->
<svg version="1.1" id="Layer_1" xmlns="http://www.w3.org/2000/svg" xmlns:xlink="http://www.w3.org/1999/xlink" x="0px" y="0px"
	 width="512px" height="512px" viewBox="0 0 512 512" style="enable-background:new 0 0 512 512;" xml:space="preserve">
<g>
	<g>
		<path d="M369,140.5l50.7-99.7c2-4,1.6-8.8-1-12.4c-2.7-3.6-7.1-5.4-11.5-4.6L123.6,72.7L121,57.8c8.8-6.1,13.8-16.9,11.9-28.2
			c-2.7-15.4-17.3-25.8-32.7-23.1S74.5,23.9,77.1,39.3C79,50.5,87.4,59.1,97.7,61.8l73.7,428l23.3-4l-34.4-199.8l283.2-48.8
			c4.4-0.8,8-3.9,9.3-8.2c1.3-4.3,0.1-8.9-3.2-12L369,140.5z M106.2,41.4c-3.8,0.7-7.5-1.9-8.2-5.8c-0.7-3.8,1.9-7.5,5.8-8.2
			s7.5,1.9,8.2,5.8C112.6,37.1,110.1,40.8,106.2,41.4z M156.3,262.8L156.3,262.8l-6.7-38.6l37.1-6.4c6.4-1.1,10.7-7.2,9.6-13.6
			c-1.1-6.4-7.2-10.7-13.6-9.6l-37.1,6.4l-7.4-43l58-10c6.4-1.1,10.7-7.2,9.6-13.6c-1.1-6.4-7.2-10.7-13.6-9.6l-58,10l-6.7-38.6
			L388,51.1l-44,86.5c-2.4,4.7-1.4,10.3,2.4,13.9l69.9,66.5L156.3,262.8L156.3,262.8z"/>
	</g>
</g>
<path d="M212.4,505h-55c-6.5,0-11.8-5.3-11.8-11.8v0c0-6.5,5.3-11.8,11.8-11.8h55c6.5,0,11.8,5.3,11.8,11.8v0
	C224.3,499.7,218.9,505,212.4,505z"/>
</svg>
