<svg height="512pt" viewBox="0 0 512.00049 512" width="512pt" xmlns="http://www.w3.org/2000/svg"><path d="m512 210c0 36.46875-9.5 72.398438-27.472656 103.910156-5.472656 9.59375-17.6875 12.933594-27.28125 7.460938s-12.9375-17.6875-7.460938-27.28125c14.53125-25.480469 22.214844-54.558594 22.214844-84.089844 0-93.738281-76.261719-170-170-170s-170 76.261719-170 170 76.261719 170 170 170c29.171875 0 57.941406-7.507812 83.195312-21.710938 9.628907-5.414062 21.824219-1.996093 27.238282 7.628907 5.414062 9.628906 2 21.824219-7.628906 27.234375-31.226563 17.566406-66.777344 26.847656-102.804688 26.847656-50.476562 0-96.847656-17.90625-133.105469-47.695312l-134.800781 133.886718c-3.898438 3.871094-8.996094 5.808594-14.09375 5.808594-5.140625 0-10.28125-1.96875-14.191406-5.90625-7.78125-7.835938-7.738282-20.5.097656-28.285156l134.621094-133.703125c-30.285156-36.402344-48.527344-83.160157-48.527344-134.105469 0-115.792969 94.207031-210 210-210s210 94.207031 210 210zm-259.871094-7.898438c-7.617187-10.417968-12.128906-23.238281-12.128906-37.101562 0-34.738281 28.261719-63 63-63s63 28.261719 63 63c0 13.863281-4.507812 26.683594-12.125 37.101562 22.746094 13.742188 39.746094 36.519532 45.421875 63.851563 2.050781 9.867187-.417969 20.007813-6.769531 27.8125-6.320313 7.777344-15.695313 12.234375-25.714844 12.234375h-127.625c-10.019531 0-19.390625-4.457031-25.714844-12.230469-6.351562-7.808593-8.820312-17.949219-6.769531-27.816406 5.675781-27.332031 22.675781-50.109375 45.425781-63.851563zm27.871094-37.101562c0 12.683594 10.320312 23 23 23 12.683594 0 23-10.316406 23-23s-10.316406-23-23-23c-12.679688 0-23 10.316406-23 23zm-31.824219 101h109.648438c-8.230469-22.441406-29.882813-38-54.300781-38h-1.046876c-24.417968 0-46.066406 15.558594-54.300781 38zm0 0"/></svg>