<svg height="512pt" viewBox="0 0 512 512" width="512pt" xmlns="http://www.w3.org/2000/svg"><path d="m100 160c33.085938 0 60-26.914062 60-60s-26.914062-60-60-60-60 26.914062-60 60 26.914062 60 60 60zm0-80c11.027344 0 20 8.972656 20 20s-8.972656 20-20 20-20-8.972656-20-20 8.972656-20 20-20zm312 80c33.085938 0 60-26.914062 60-60s-26.914062-60-60-60-60 26.914062-60 60 26.914062 60 60 60zm0-80c11.027344 0 20 8.972656 20 20s-8.972656 20-20 20-20-8.972656-20-20 8.972656-20 20-20zm100 159v88c0 26.074219-16.71875 48.316406-40 56.574219v108.425781c0 11.046875-8.953125 20-20 20s-20-8.953125-20-20v-125c0-11.046875 8.953125-20 20-20 11.027344 0 20-8.972656 20-20v-88c0-11.027344-8.972656-20-20-20h-36c-11.046875 0-20-8.953125-20-20s8.953125-20 20-20h36c33.085938 0 60 26.914062 60 60zm-120 128v125c0 11.046875-8.953125 20-20 20s-20-8.953125-20-20v-108.425781c-11.796875-4.183594-21.902344-11.960938-29.007812-22.007813-2.253907 1.144532-4.585938 2.152344-6.992188 3.007813v127.425781c0 11.046875-8.953125 20-20 20s-20-8.953125-20-20v-144c0-11.046875 8.953125-20 20-20 11.027344 0 20-8.972656 20-20v-109c0-11.027344-8.972656-20-20-20h-80c-11.027344 0-20 8.972656-20 20v109c0 11.027344 8.972656 20 20 20 11.046875 0 20 8.953125 20 20v144c0 11.046875-8.953125 20-20 20s-20-8.953125-20-20v-127.425781c-2.40625-.855469-4.738281-1.863281-6.992188-3.007813-7.105468 10.046875-17.210937 17.824219-29.007812 22.007813v108.425781c0 11.046875-8.953125 20-20 20s-20-8.953125-20-20v-125c0-11.046875 8.953125-20 20-20 10.285156 0 18.773438-7.804688 19.871094-17.800781-2.496094-6.59375-3.871094-13.738281-3.871094-21.199219v-109c0-33.085938 26.914062-60 60-60h80c33.085938 0 60 26.914062 60 60v109c0 7.460938-1.375 14.605469-3.871094 21.199219 1.097656 9.996093 9.585938 17.800781 19.871094 17.800781 11.046875 0 20 8.953125 20 20zm-276-168c0 11.046875-8.953125 20-20 20h-36c-11.027344 0-20 8.972656-20 20v88c0 11.027344 8.972656 20 20 20 11.046875 0 20 8.953125 20 20v125c0 11.046875-8.953125 20-20 20s-20-8.953125-20-20v-108.425781c-23.28125-8.257813-40-30.5-40-56.574219v-88c0-33.085938 26.914062-60 60-60h36c11.046875 0 20 8.953125 20 20zm140-79c33.085938 0 60-26.914062 60-60s-26.914062-60-60-60-60 26.914062-60 60 26.914062 60 60 60zm0-80c11.027344 0 20 8.972656 20 20s-8.972656 20-20 20-20-8.972656-20-20 8.972656-20 20-20zm0 0"/></svg>