<svg height="438pt" viewBox="0 0 438 438.72042" width="438pt" xmlns="http://www.w3.org/2000/svg"><path d="m433.734375 382.136719-73.226563-73.222657c-5.003906-5.007812-12.164062-7.019531-18.988281-6.21875l-30.617187-30.617187c48.542968-67.070313 42.820312-161.496094-17.558594-221.875-66.941406-66.941406-175.847656-66.933594-242.78125 0-66.9375 66.9375-66.9375 175.847656 0 242.785156 33.46875 33.46875 77.429688 50.203125 121.394531 50.203125 35.34375 0 70.589844-11.011718 100.480469-32.644531l30.4375 30.441406c-.894531 6.808594 1.175781 13.9375 6.394531 19.160157l73.226563 73.222656c3.5625 3.570312 8.246094 5.347656 12.929687 5.347656 4.683594 0 9.367188-1.777344 12.925781-5.347656l25.382813-25.375c7.128906-7.128906 7.128906-18.730469 0-25.859375zm-370.242187-102.078125c-59.808594-59.804688-59.808594-157.117188 0-216.925782 29.902343-29.902343 69.183593-44.855468 108.464843-44.855468 39.277344 0 78.558594 14.953125 108.460938 44.855468 59.804687 59.808594 59.804687 157.121094 0 216.925782-59.808594 59.804687-157.128907 59.804687-216.925781 0zm236.910156 7.375 24.628906 24.628906-12.613281 12.613281-24.628907-24.632812zm95.023437 133.011718-73.222656-73.222656c-1.785156-1.78125-1.785156-4.6875 0-6.46875l18.910156-18.914062c1.164063-1.164063 2.527344-1.335938 3.230469-1.335938.710938 0 2.066406.171875 3.234375 1.335938l73.226563 73.230468zm0 0"/><path d="m267.484375 76.066406c-25.515625-25.523437-59.441406-39.578125-95.527344-39.578125-36.089843 0-70.019531 14.054688-95.53125 39.578125-25.519531 25.511719-39.574219 59.4375-39.574219 95.527344 0 36.097656 14.054688 70.019531 39.574219 95.535156 25.511719 25.519532 59.441407 39.574219 95.53125 39.574219 36.085938 0 70.011719-14.054687 95.527344-39.574219 25.519531-25.515625 39.574219-59.445312 39.574219-95.535156 0-36.085938-14.054688-70.015625-39.574219-95.527344zm-12.929687 178.132813c-22.0625 22.066406-51.398438 34.21875-82.597657 34.21875-31.207031 0-60.542969-12.152344-82.605469-34.21875-22.0625-22.0625-34.210937-51.398438-34.210937-82.605469 0-31.203125 12.148437-60.539062 34.210937-82.601562 22.0625-22.066407 51.398438-34.21875 82.605469-34.21875 31.199219 0 60.535157 12.152343 82.597657 34.21875 22.066406 22.0625 34.21875 51.398437 34.21875 82.601562 0 31.207031-12.152344 60.542969-34.21875 82.605469zm0 0"/></svg>